<svg width="48" height="48" viewBox="0 0 48 48" fill="none" xmlns="http://www.w3.org/2000/svg">
<g filter="url(#filter0_d_112_4687)">
<mask id="path-1-inside-1_112_4687" fill="white">u
<path d="M10.3158 20C10.3158 22.2117 10.7514 24.4018 11.5978 26.4452C12.4442 28.4886 13.6848 30.3452 15.2487 31.9092C16.8127 33.4731 18.6693 34.7137 20.7127 35.5601C22.7561 36.4065 24.9462 36.8421 27.1579 36.8421C29.3696 36.8421 31.5597 36.4065 33.6031 35.5601C35.6465 34.7137 37.5031 33.4731 39.0671 31.9092C40.631 30.3452 41.8716 28.4886 42.718 26.4452C43.5644 24.4018 44 22.2117 44 20L37.2632 20C37.2632 21.327 37.0018 22.6411 36.4939 23.8671C35.9861 25.0931 35.2418 26.2071 34.3034 27.1455C33.365 28.0839 32.251 28.8282 31.025 29.336C29.799 29.8439 28.4849 30.1053 27.1579 30.1053C25.8309 30.1053 24.5168 29.8439 23.2908 29.336C22.0648 28.8282 20.9508 28.0839 20.0124 27.1455C19.074 26.2071 18.3297 25.0931 17.8219 23.8671C17.314 22.6411 17.0526 21.327 17.0526 20L10.3158 20Z"/>
</mask>
<path d="M10.3158 20C10.3158 22.2117 10.7514 24.4018 11.5978 26.4452C12.4442 28.4886 13.6848 30.3452 15.2487 31.9092C16.8127 33.4731 18.6693 34.7137 20.7127 35.5601C22.7561 36.4065 24.9462 36.8421 27.1579 36.8421C29.3696 36.8421 31.5597 36.4065 33.6031 35.5601C35.6465 34.7137 37.5031 33.4731 39.0671 31.9092C40.631 30.3452 41.8716 28.4886 42.718 26.4452C43.5644 24.4018 44 22.2117 44 20L37.2632 20C37.2632 21.327 37.0018 22.6411 36.4939 23.8671C35.9861 25.0931 35.2418 26.2071 34.3034 27.1455C33.365 28.0839 32.251 28.8282 31.025 29.336C29.799 29.8439 28.4849 30.1053 27.1579 30.1053C25.8309 30.1053 24.5168 29.8439 23.2908 29.336C22.0648 28.8282 20.9508 28.0839 20.0124 27.1455C19.074 26.2071 18.3297 25.0931 17.8219 23.8671C17.314 22.6411 17.0526 21.327 17.0526 20L10.3158 20Z" fill="#FF6A13" stroke="#FF6A13" stroke-width="2" mask="url(#path-1-inside-1_112_4687)"/>
<mask id="path-2-inside-2_112_4687" fill="white">
<path d="M37.6842 20C37.6842 15.5332 35.9098 11.2493 32.7513 8.09084C29.5928 4.93233 25.3089 3.1579 20.8421 3.1579C16.3753 3.1579 12.0914 4.93233 8.93294 8.09083C5.77443 11.2493 4 15.5332 4 20L10.7368 20C10.7368 17.3199 11.8015 14.7496 13.6966 12.8545C15.5917 10.9594 18.162 9.89474 20.8421 9.89474C23.5222 9.89474 26.0925 10.9594 27.9876 12.8545C29.8827 14.7496 30.9474 17.3199 30.9474 20L37.6842 20Z"/>
</mask>
<path d="M37.6842 20C37.6842 15.5332 35.9098 11.2493 32.7513 8.09084C29.5928 4.93233 25.3089 3.1579 20.8421 3.1579C16.3753 3.1579 12.0914 4.93233 8.93294 8.09083C5.77443 11.2493 4 15.5332 4 20L10.7368 20C10.7368 17.3199 11.8015 14.7496 13.6966 12.8545C15.5917 10.9594 18.162 9.89474 20.8421 9.89474C23.5222 9.89474 26.0925 10.9594 27.9876 12.8545C29.8827 14.7496 30.9474 17.3199 30.9474 20L37.6842 20Z" fill="#FF6A13" stroke="#FF6A13" stroke-width="2" mask="url(#path-2-inside-2_112_4687)"/>
<mask id="path-3-inside-3_112_4687" fill="white">
<path d="M11.2632 20.0001C11.2632 22.0736 11.6716 24.1268 12.4651 26.0425C13.2586 27.9581 14.4217 29.6988 15.8878 31.1649C17.354 32.6311 19.0947 33.7942 21.0103 34.5877C22.926 35.3812 24.9792 35.7896 27.0527 35.7896C29.1262 35.7896 31.1794 35.3812 33.0951 34.5877C35.0107 33.7942 36.7513 32.6311 38.2175 31.1649C39.6837 29.6988 40.8468 27.9581 41.6403 26.0425C42.4338 24.1268 42.8422 22.0736 42.8422 20.0001L36.5264 20.0001C36.5264 21.2442 36.2813 22.4761 35.8052 23.6255C35.3291 24.7749 34.6313 25.8193 33.7516 26.699C32.8719 27.5787 31.8275 28.2765 30.6781 28.7526C29.5287 29.2287 28.2968 29.4738 27.0527 29.4738C25.8086 29.4738 24.5767 29.2287 23.4273 28.7526C22.2779 28.2765 21.2335 27.5787 20.3538 26.699C19.4741 25.8193 18.7762 24.7749 18.3001 23.6255C17.8241 22.4761 17.579 21.2442 17.579 20.0001L11.2632 20.0001Z"/>
</mask>
<path d="M11.2632 20.0001C11.2632 22.0736 11.6716 24.1268 12.4651 26.0425C13.2586 27.9581 14.4217 29.6988 15.8878 31.1649C17.354 32.6311 19.0947 33.7942 21.0103 34.5877C22.926 35.3812 24.9792 35.7896 27.0527 35.7896C29.1262 35.7896 31.1794 35.3812 33.0951 34.5877C35.0107 33.7942 36.7513 32.6311 38.2175 31.1649C39.6837 29.6988 40.8468 27.9581 41.6403 26.0425C42.4338 24.1268 42.8422 22.0736 42.8422 20.0001L36.5264 20.0001C36.5264 21.2442 36.2813 22.4761 35.8052 23.6255C35.3291 24.7749 34.6313 25.8193 33.7516 26.699C32.8719 27.5787 31.8275 28.2765 30.6781 28.7526C29.5287 29.2287 28.2968 29.4738 27.0527 29.4738C25.8086 29.4738 24.5767 29.2287 23.4273 28.7526C22.2779 28.2765 21.2335 27.5787 20.3538 26.699C19.4741 25.8193 18.7762 24.7749 18.3001 23.6255C17.8241 22.4761 17.579 21.2442 17.579 20.0001L11.2632 20.0001Z" fill="#FF6A13" stroke="#FF6A13" stroke-width="2" mask="url(#path-3-inside-3_112_4687)"/>
<mask id="path-4-inside-4_112_4687" fill="white">
<path d="M36.7368 20.0001C36.7368 15.8125 35.0733 11.7964 32.1122 8.83526C29.1511 5.87416 25.135 4.21063 20.9473 4.21063C16.7597 4.21063 12.7436 5.87416 9.7825 8.83526C6.8214 11.7964 5.15787 15.8125 5.15787 20.0001L11.4737 20.0001C11.4737 17.4875 12.4718 15.0779 14.2484 13.3012C16.0251 11.5245 18.4348 10.5264 20.9473 10.5264C23.4599 10.5264 25.8696 11.5245 27.6463 13.3012C29.4229 15.0779 30.421 17.4875 30.421 20.0001L36.7368 20.0001Z"/>
</mask>
<path d="M36.7368 20.0001C36.7368 15.8125 35.0733 11.7964 32.1122 8.83526C29.1511 5.87416 25.135 4.21063 20.9473 4.21063C16.7597 4.21063 12.7436 5.87416 9.7825 8.83526C6.8214 11.7964 5.15787 15.8125 5.15787 20.0001L11.4737 20.0001C11.4737 17.4875 12.4718 15.0779 14.2484 13.3012C16.0251 11.5245 18.4348 10.5264 20.9473 10.5264C23.4599 10.5264 25.8696 11.5245 27.6463 13.3012C29.4229 15.0779 30.421 17.4875 30.421 20.0001L36.7368 20.0001Z" fill="#FF6A13" stroke="#FF6A13" stroke-width="2" mask="url(#path-4-inside-4_112_4687)"/>
<path d="M23.5789 33.6842C25.7907 33.6842 27.9807 33.2486 30.0241 32.4022C32.0675 31.5558 33.9242 30.3152 35.4881 28.7513C37.052 27.1873 38.2926 25.3307 39.139 23.2873C39.9854 21.2439 40.421 19.0538 40.421 16.8421C40.421 14.6304 39.9854 12.4403 39.139 10.3969C38.2926 8.35353 37.052 6.49687 35.4881 4.93294C33.9242 3.369 32.0675 2.12842 30.0241 1.28203C27.9807 0.435634 25.7907 -9.66781e-08 23.5789 0L23.5789 6.73684C24.906 6.73684 26.22 6.99822 27.446 7.50606C28.6721 8.0139 29.7861 8.75824 30.7244 9.6966C31.6628 10.635 32.4071 11.749 32.915 12.975C33.4228 14.201 33.6842 15.5151 33.6842 16.8421C33.6842 18.1691 33.4228 19.4832 32.915 20.7092C32.4071 21.9352 31.6628 23.0492 30.7244 23.9876C29.7861 24.926 28.6721 25.6703 27.446 26.1781C26.22 26.686 24.906 26.9474 23.5789 26.9474L23.5789 33.6842Z" fill="#103B4D"/>
<path d="M23.5789 6.31573C19.1121 6.31573 14.8283 8.09017 11.6698 11.2487C8.51125 14.4072 6.73682 18.691 6.73682 23.1578C6.73682 27.6246 8.51125 31.9085 11.6698 35.067C14.8283 38.2255 19.1121 39.9999 23.5789 39.9999L23.5789 33.2631C20.8988 33.2631 18.3285 32.1984 16.4334 30.3033C14.5383 28.4082 13.4737 25.8379 13.4737 23.1578C13.4737 20.4778 14.5383 17.9074 16.4334 16.0123C18.3285 14.1172 20.8988 13.0526 23.5789 13.0526L23.5789 6.31573Z" fill="#103B4D"/>
<path d="M23.5789 32.7368C25.6524 32.7368 27.7056 32.3284 29.6213 31.5349C31.5369 30.7414 33.2776 29.5784 34.7437 28.1122C36.2099 26.646 37.373 24.9054 38.1665 22.9897C38.96 21.0741 39.3684 19.0209 39.3684 16.9474C39.3684 14.8739 38.96 12.8207 38.1665 10.905C37.373 8.98933 36.2099 7.24871 34.7437 5.78253C33.2776 4.31634 31.5369 3.15329 29.6213 2.3598C27.7056 1.5663 25.6524 1.1579 23.5789 1.1579L23.5789 7.47369C24.823 7.47369 26.0549 7.71873 27.2043 8.19483C28.3537 8.67092 29.3981 9.36875 30.2778 10.2485C31.1575 11.1282 31.8553 12.1725 32.3314 13.3219C32.8075 14.4713 33.0526 15.7033 33.0526 16.9474C33.0526 18.1915 32.8075 19.4234 32.3314 20.5728C31.8553 21.7222 31.1575 22.7666 30.2778 23.6463C29.3981 24.526 28.3537 25.2238 27.2043 25.6999C26.0549 26.176 24.823 26.4211 23.5789 26.4211L23.5789 32.7368Z" fill="#103B4D"/>
<path d="M23.5789 7.26318C19.3913 7.26318 15.3752 8.92671 12.4141 11.8878C9.45296 14.8489 7.78943 18.865 7.78943 23.0527C7.78943 27.2403 9.45296 31.2564 12.4141 34.2175C15.3752 37.1786 19.3913 38.8421 23.5789 38.8421L23.5789 32.5263C21.0663 32.5263 18.6567 31.5282 16.88 29.7516C15.1033 27.9749 14.1052 25.5652 14.1052 23.0527C14.1052 20.5401 15.1033 18.1304 16.88 16.3537C18.6567 14.5771 21.0663 13.579 23.5789 13.579L23.5789 7.26318Z" fill="#103B4D"/>
</g>
<defs>
<filter id="filter0_d_112_4687" x="0" y="0" width="48" height="48" filterUnits="userSpaceOnUse" color-interpolation-filters="sRGB">
<feFlood flood-opacity="0" result="BackgroundImageFix"/>
<feColorMatrix in="SourceAlpha" type="matrix" values="0 0 0 0 0 0 0 0 0 0 0 0 0 0 0 0 0 0 127 0" result="hardAlpha"/>
<feOffset dy="4"/>
<feGaussianBlur stdDeviation="2"/>
<feComposite in2="hardAlpha" operator="out"/>
<feColorMatrix type="matrix" values="0 0 0 0 0 0 0 0 0 0 0 0 0 0 0 0 0 0 0.25 0"/>
<feBlend mode="normal" in2="BackgroundImageFix" result="effect1_dropShadow_112_4687"/>
<feBlend mode="normal" in="SourceGraphic" in2="effect1_dropShadow_112_4687" result="shape"/>
</filter>
</defs>
</svg>
