c<svg width="572" height="250" viewBox="0 0 572 250" fill="none" xmlns="http://www.w3.org/2000/svg">
<path d="M481.455 107.369H489.453V118.121C488.33 118.492 487.168 118.78 485.967 118.985C484.766 119.19 483.418 119.293 481.924 119.293C479.746 119.293 477.9 118.863 476.387 118.004C474.883 117.135 473.74 115.88 472.959 114.239C472.178 112.589 471.787 110.602 471.787 108.277C471.787 106.041 472.222 104.103 473.091 102.462C473.96 100.812 475.225 99.5371 476.885 98.6387C478.545 97.7305 480.557 97.2764 482.92 97.2764C484.082 97.2764 485.205 97.3936 486.289 97.6279C487.383 97.8525 488.384 98.165 489.292 98.5654L488.062 101.466C487.339 101.124 486.528 100.836 485.63 100.602C484.731 100.367 483.799 100.25 482.832 100.25C481.299 100.25 479.976 100.582 478.862 101.246C477.759 101.91 476.909 102.848 476.313 104.059C475.718 105.26 475.42 106.681 475.42 108.321C475.42 109.913 475.659 111.31 476.138 112.511C476.616 113.712 477.363 114.649 478.379 115.323C479.404 115.987 480.728 116.319 482.349 116.319C483.159 116.319 483.848 116.275 484.414 116.188C484.98 116.1 485.503 116.002 485.981 115.895V110.372H481.455V107.369ZM500.688 102.477C502.134 102.477 503.374 102.774 504.409 103.37C505.444 103.966 506.24 104.811 506.797 105.904C507.354 106.998 507.632 108.307 507.632 109.83V111.676H496.807C496.846 113.248 497.266 114.459 498.066 115.309C498.877 116.158 500.01 116.583 501.465 116.583C502.5 116.583 503.428 116.485 504.248 116.29C505.078 116.085 505.933 115.787 506.812 115.396V118.194C506.001 118.575 505.176 118.854 504.336 119.029C503.496 119.205 502.49 119.293 501.318 119.293C499.727 119.293 498.325 118.985 497.114 118.37C495.913 117.745 494.971 116.817 494.287 115.587C493.613 114.356 493.276 112.828 493.276 111.002C493.276 109.186 493.584 107.643 494.199 106.373C494.814 105.104 495.679 104.137 496.792 103.473C497.905 102.809 499.204 102.477 500.688 102.477ZM500.688 105.069C499.604 105.069 498.726 105.421 498.052 106.124C497.388 106.827 496.997 107.857 496.88 109.215H504.263C504.253 108.404 504.116 107.687 503.853 107.062C503.599 106.437 503.208 105.948 502.681 105.597C502.163 105.245 501.499 105.069 500.688 105.069ZM522.412 114.371C522.412 115.436 522.153 116.334 521.636 117.066C521.118 117.799 520.361 118.355 519.365 118.736C518.379 119.107 517.168 119.293 515.732 119.293C514.6 119.293 513.623 119.21 512.803 119.044C511.992 118.888 511.226 118.644 510.503 118.312V115.338C511.274 115.699 512.139 116.012 513.096 116.275C514.062 116.539 514.976 116.671 515.835 116.671C516.968 116.671 517.783 116.495 518.281 116.144C518.779 115.782 519.028 115.304 519.028 114.708C519.028 114.356 518.926 114.044 518.721 113.771C518.525 113.487 518.154 113.199 517.607 112.906C517.07 112.604 516.279 112.242 515.234 111.822C514.209 111.412 513.345 111.002 512.642 110.592C511.938 110.182 511.406 109.688 511.045 109.112C510.684 108.526 510.503 107.779 510.503 106.871C510.503 105.436 511.069 104.347 512.202 103.604C513.345 102.853 514.854 102.477 516.729 102.477C517.725 102.477 518.662 102.579 519.541 102.784C520.43 102.979 521.299 103.268 522.148 103.648L521.064 106.241C520.332 105.919 519.595 105.655 518.853 105.45C518.12 105.235 517.373 105.128 516.611 105.128C515.723 105.128 515.044 105.265 514.575 105.538C514.116 105.812 513.887 106.202 513.887 106.71C513.887 107.091 513.999 107.413 514.224 107.677C514.448 107.94 514.834 108.204 515.381 108.468C515.938 108.731 516.709 109.059 517.695 109.449C518.662 109.82 519.497 110.211 520.2 110.621C520.913 111.021 521.46 111.515 521.841 112.101C522.222 112.687 522.412 113.443 522.412 114.371ZM532.168 116.51C532.617 116.51 533.062 116.471 533.501 116.393C533.94 116.305 534.341 116.202 534.702 116.085V118.692C534.321 118.858 533.828 119 533.223 119.117C532.617 119.234 531.987 119.293 531.333 119.293C530.415 119.293 529.59 119.142 528.857 118.839C528.125 118.526 527.544 117.994 527.114 117.242C526.685 116.49 526.47 115.45 526.47 114.122V105.406H524.258V103.868L526.631 102.652L527.759 99.1807H529.927V102.784H534.57V105.406H529.927V114.078C529.927 114.898 530.132 115.509 530.542 115.909C530.952 116.31 531.494 116.51 532.168 116.51ZM544.355 102.477C546.406 102.477 547.954 102.931 548.999 103.839C550.054 104.747 550.581 106.163 550.581 108.087V119H548.135L547.476 116.7H547.358C546.899 117.286 546.426 117.77 545.938 118.15C545.449 118.531 544.883 118.814 544.238 119C543.604 119.195 542.827 119.293 541.909 119.293C540.942 119.293 540.078 119.117 539.316 118.766C538.555 118.404 537.954 117.857 537.515 117.125C537.075 116.393 536.855 115.465 536.855 114.342C536.855 112.672 537.476 111.417 538.716 110.577C539.966 109.737 541.851 109.273 544.37 109.186L547.183 109.083V108.233C547.183 107.11 546.919 106.31 546.392 105.831C545.874 105.353 545.142 105.113 544.194 105.113C543.384 105.113 542.598 105.23 541.836 105.465C541.074 105.699 540.332 105.987 539.609 106.329L538.496 103.897C539.287 103.478 540.186 103.136 541.191 102.872C542.207 102.608 543.262 102.477 544.355 102.477ZM547.168 111.251L545.073 111.324C543.354 111.383 542.148 111.676 541.455 112.203C540.762 112.73 540.415 113.453 540.415 114.371C540.415 115.172 540.654 115.758 541.133 116.129C541.611 116.49 542.241 116.671 543.022 116.671C544.214 116.671 545.2 116.334 545.981 115.66C546.772 114.977 547.168 113.976 547.168 112.657V111.251ZM538.423 100.807C538.481 100.123 538.608 99.5273 538.804 99.0195C538.999 98.502 539.253 98.0723 539.565 97.7305C539.888 97.3789 540.254 97.1152 540.664 96.9395C541.084 96.7637 541.538 96.6758 542.026 96.6758C542.456 96.6758 542.866 96.7588 543.257 96.9248C543.657 97.0908 544.043 97.2861 544.414 97.5107C544.795 97.7256 545.161 97.916 545.513 98.082C545.874 98.248 546.221 98.3311 546.553 98.3311C546.934 98.3311 547.256 98.1943 547.52 97.9209C547.793 97.6475 547.998 97.2227 548.135 96.6465H549.937C549.819 97.9941 549.434 99.0244 548.779 99.7373C548.125 100.44 547.31 100.792 546.333 100.792C545.923 100.792 545.518 100.709 545.117 100.543C544.727 100.367 544.346 100.172 543.975 99.957C543.604 99.7422 543.237 99.5518 542.876 99.3857C542.515 99.2197 542.163 99.1367 541.821 99.1367C541.431 99.1367 541.099 99.2734 540.825 99.5469C540.562 99.8203 540.366 100.24 540.239 100.807H538.423ZM569.756 110.855C569.756 112.203 569.58 113.399 569.229 114.444C568.877 115.489 568.364 116.373 567.69 117.096C567.017 117.809 566.206 118.355 565.259 118.736C564.312 119.107 563.242 119.293 562.051 119.293C560.938 119.293 559.917 119.107 558.989 118.736C558.062 118.355 557.256 117.809 556.572 117.096C555.898 116.373 555.376 115.489 555.005 114.444C554.634 113.399 554.448 112.203 554.448 110.855C554.448 109.068 554.756 107.555 555.371 106.314C555.996 105.064 556.885 104.112 558.037 103.458C559.189 102.804 560.562 102.477 562.153 102.477C563.647 102.477 564.966 102.804 566.108 103.458C567.251 104.112 568.145 105.064 568.789 106.314C569.434 107.564 569.756 109.078 569.756 110.855ZM557.993 110.855C557.993 112.037 558.135 113.048 558.418 113.888C558.711 114.728 559.16 115.372 559.766 115.821C560.371 116.261 561.152 116.48 562.109 116.48C563.066 116.48 563.848 116.261 564.453 115.821C565.059 115.372 565.503 114.728 565.786 113.888C566.069 113.048 566.211 112.037 566.211 110.855C566.211 109.674 566.069 108.673 565.786 107.853C565.503 107.022 565.059 106.393 564.453 105.963C563.848 105.523 563.062 105.304 562.095 105.304C560.669 105.304 559.629 105.782 558.975 106.739C558.32 107.696 557.993 109.068 557.993 110.855Z" fill="white"/>
<path d="M274.68 65.1973H303.562C315.918 65.1973 325.271 66.9323 331.618 70.4023C337.966 73.8724 341.14 79.9661 341.14 88.6836C341.14 92.196 340.568 95.3698 339.426 98.2051C338.326 101.04 336.717 103.368 334.602 105.188C332.486 107.007 329.904 108.192 326.857 108.742V109.377C329.947 110.012 332.74 111.112 335.236 112.678C337.733 114.201 339.722 116.444 341.203 119.406C342.727 122.326 343.488 126.219 343.488 131.086C343.488 136.714 342.113 141.538 339.362 145.559C336.612 149.579 332.676 152.668 327.556 154.826C322.478 156.942 316.426 158 309.401 158H274.68V65.1973ZM294.357 101.95H305.783C311.496 101.95 315.453 101.062 317.653 99.2842C319.854 97.4645 320.954 94.7985 320.954 91.2861C320.954 87.7314 319.642 85.1924 317.019 83.6689C314.437 82.1032 310.332 81.3203 304.704 81.3203H294.357V101.95ZM294.357 117.565V141.75H307.18C313.104 141.75 317.23 140.607 319.558 138.322C321.885 136.037 323.049 132.969 323.049 129.118C323.049 126.833 322.541 124.823 321.525 123.088C320.51 121.353 318.796 119.999 316.384 119.025C314.014 118.052 310.734 117.565 306.545 117.565H294.357ZM351.623 65.1973H380.505C392.862 65.1973 402.214 66.9323 408.562 70.4023C414.91 73.8724 418.083 79.9661 418.083 88.6836C418.083 92.196 417.512 95.3698 416.37 98.2051C415.269 101.04 413.661 103.368 411.545 105.188C409.429 107.007 406.848 108.192 403.801 108.742V109.377C406.89 110.012 409.683 111.112 412.18 112.678C414.677 114.201 416.666 116.444 418.147 119.406C419.67 122.326 420.432 126.219 420.432 131.086C420.432 136.714 419.057 141.538 416.306 145.559C413.555 149.579 409.62 152.668 404.499 154.826C399.421 156.942 393.37 158 386.345 158H351.623V65.1973ZM371.301 101.95H382.727C388.44 101.95 392.397 101.062 394.597 99.2842C396.798 97.4645 397.898 94.7985 397.898 91.2861C397.898 87.7314 396.586 85.1924 393.962 83.6689C391.381 82.1032 387.276 81.3203 381.648 81.3203H371.301V101.95ZM371.301 117.565V141.75H384.123C390.048 141.75 394.174 140.607 396.501 138.322C398.829 136.037 399.993 132.969 399.993 129.118C399.993 126.833 399.485 124.823 398.469 123.088C397.454 121.353 395.74 119.999 393.328 119.025C390.958 118.052 387.678 117.565 383.489 117.565H371.301ZM428.567 158V65.1973H448.245V141.75H485.887V158H428.567Z" fill="white"/>
<line x1="255.5" y1="194" x2="255.5" y2="35" stroke="white" stroke-width="5"/>
<g filter="url(#filter0_bddddddd_25_4814)">
<mask id="path-4-inside-1_25_4814" fill="white">
<path d="M49.7368 121C49.7368 133.165 52.1328 145.21 56.788 156.449C61.4432 167.687 68.2664 177.899 76.868 186.5C85.4697 195.102 95.6813 201.925 106.92 206.58C118.158 211.236 130.204 213.632 142.368 213.632C154.533 213.632 166.578 211.236 177.817 206.58C189.056 201.925 199.267 195.102 207.869 186.5C216.47 177.899 223.294 167.687 227.949 156.449C232.604 145.21 235 133.165 235 121L197.947 121C197.947 128.299 196.51 135.526 193.717 142.269C190.924 149.012 186.83 155.139 181.669 160.3C176.508 165.461 170.381 169.555 163.638 172.348C156.894 175.141 149.667 176.579 142.368 176.579C135.07 176.579 127.842 175.141 121.099 172.348C114.356 169.555 108.229 165.461 103.068 160.3C97.9072 155.139 93.8133 149.012 91.0202 142.269C88.2271 135.526 86.7895 128.299 86.7895 121L49.7368 121Z"/>
</mask>
<path d="M49.7368 121C49.7368 133.165 52.1328 145.21 56.788 156.449C61.4432 167.687 68.2664 177.899 76.868 186.5C85.4697 195.102 95.6813 201.925 106.92 206.58C118.158 211.236 130.204 213.632 142.368 213.632C154.533 213.632 166.578 211.236 177.817 206.58C189.056 201.925 199.267 195.102 207.869 186.5C216.47 177.899 223.294 167.687 227.949 156.449C232.604 145.21 235 133.165 235 121L197.947 121C197.947 128.299 196.51 135.526 193.717 142.269C190.924 149.012 186.83 155.139 181.669 160.3C176.508 165.461 170.381 169.555 163.638 172.348C156.894 175.141 149.667 176.579 142.368 176.579C135.07 176.579 127.842 175.141 121.099 172.348C114.356 169.555 108.229 165.461 103.068 160.3C97.9072 155.139 93.8133 149.012 91.0202 142.269C88.2271 135.526 86.7895 128.299 86.7895 121L49.7368 121Z" fill="#FF6A13" stroke="#FF6A13" stroke-width="2" mask="url(#path-4-inside-1_25_4814)"/>
<mask id="path-5-inside-2_25_4814" fill="white">
<path d="M200.263 121C200.263 96.4326 190.504 72.8714 173.132 55.4996C155.76 38.1278 132.199 28.3684 107.632 28.3684C83.0642 28.3684 59.503 38.1278 42.1312 55.4996C24.7594 72.8714 15 96.4326 15 121L52.0527 121C52.0527 106.26 57.9083 92.1228 68.3314 81.6997C78.7544 71.2767 92.8912 65.4211 107.632 65.4211C122.372 65.4211 136.509 71.2767 146.932 81.6997C157.355 92.1228 163.211 106.26 163.211 121H200.263Z"/>
</mask>
<path d="M200.263 121C200.263 96.4326 190.504 72.8714 173.132 55.4996C155.76 38.1278 132.199 28.3684 107.632 28.3684C83.0642 28.3684 59.503 38.1278 42.1312 55.4996C24.7594 72.8714 15 96.4326 15 121L52.0527 121C52.0527 106.26 57.9083 92.1228 68.3314 81.6997C78.7544 71.2767 92.8912 65.4211 107.632 65.4211C122.372 65.4211 136.509 71.2767 146.932 81.6997C157.355 92.1228 163.211 106.26 163.211 121H200.263Z" fill="#FF6A13" stroke="#FF6A13" stroke-width="2" mask="url(#path-5-inside-2_25_4814)"/>
<mask id="path-6-inside-3_25_4814" fill="white">
<path d="M54.9474 121C54.9474 132.404 57.1936 143.697 61.5578 154.233C65.9221 164.769 72.3188 174.343 80.3828 182.407C88.4469 190.471 98.0203 196.867 108.556 201.232C119.093 205.596 130.385 207.842 141.789 207.842C153.194 207.842 164.486 205.596 175.023 201.232C185.559 196.867 195.132 190.471 203.196 182.407C211.26 174.343 217.657 164.769 222.021 154.233C226.385 143.697 228.632 132.404 228.632 121H193.895C193.895 127.843 192.547 134.618 189.928 140.94C187.31 147.262 183.472 153.006 178.633 157.844C173.795 162.682 168.051 166.52 161.729 169.139C155.408 171.758 148.632 173.105 141.789 173.105C134.947 173.105 128.171 171.758 121.85 169.139C115.528 166.52 109.784 162.682 104.946 157.844C100.107 153.006 96.269 147.262 93.6505 140.94C91.032 134.618 89.6842 127.843 89.6842 121H54.9474Z"/>
</mask>
<path d="M54.9474 121C54.9474 132.404 57.1936 143.697 61.5578 154.233C65.9221 164.769 72.3188 174.343 80.3828 182.407C88.4469 190.471 98.0203 196.867 108.556 201.232C119.093 205.596 130.385 207.842 141.789 207.842C153.194 207.842 164.486 205.596 175.023 201.232C185.559 196.867 195.132 190.471 203.196 182.407C211.26 174.343 217.657 164.769 222.021 154.233C226.385 143.697 228.632 132.404 228.632 121H193.895C193.895 127.843 192.547 134.618 189.928 140.94C187.31 147.262 183.472 153.006 178.633 157.844C173.795 162.682 168.051 166.52 161.729 169.139C155.408 171.758 148.632 173.105 141.789 173.105C134.947 173.105 128.171 171.758 121.85 169.139C115.528 166.52 109.784 162.682 104.946 157.844C100.107 153.006 96.269 147.262 93.6505 140.94C91.032 134.618 89.6842 127.843 89.6842 121H54.9474Z" fill="#FF6A13" stroke="#FF6A13" stroke-width="2" mask="url(#path-6-inside-3_25_4814)"/>
<mask id="path-7-inside-4_25_4814" fill="white">
<path d="M195.053 121C195.053 97.968 185.903 75.8794 169.617 59.5934C153.331 43.3073 131.242 34.1579 108.211 34.1579C85.1786 34.1579 63.0899 43.3073 46.8039 59.5933C30.5178 75.8794 21.3684 97.968 21.3684 121L56.1053 121C56.1053 107.181 61.5949 93.9276 71.3665 84.156C81.1382 74.3844 94.3913 68.8947 108.211 68.8947C122.03 68.8947 135.283 74.3844 145.054 84.156C154.826 93.9276 160.316 107.181 160.316 121H195.053Z"/>
</mask>
<path d="M195.053 121C195.053 97.968 185.903 75.8794 169.617 59.5934C153.331 43.3073 131.242 34.1579 108.211 34.1579C85.1786 34.1579 63.0899 43.3073 46.8039 59.5933C30.5178 75.8794 21.3684 97.968 21.3684 121L56.1053 121C56.1053 107.181 61.5949 93.9276 71.3665 84.156C81.1382 74.3844 94.3913 68.8947 108.211 68.8947C122.03 68.8947 135.283 74.3844 145.054 84.156C154.826 93.9276 160.316 107.181 160.316 121H195.053Z" fill="#FF6A13" stroke="#FF6A13" stroke-width="2" mask="url(#path-7-inside-4_25_4814)"/>
<path d="M122.684 196.263C134.849 196.263 146.894 193.867 158.133 189.212C169.371 184.557 179.583 177.734 188.185 169.132C196.786 160.53 203.609 150.319 208.265 139.08C212.92 127.842 215.316 115.796 215.316 103.632C215.316 91.467 212.92 79.4216 208.265 68.183C203.609 56.9444 196.786 46.7328 188.185 38.1312C179.583 29.5295 169.371 22.7063 158.133 18.0512C146.894 13.396 134.849 11 122.684 11L122.684 48.0526C129.983 48.0526 137.21 49.4902 143.953 52.2833C150.696 55.0764 156.823 59.1703 161.984 64.3313C167.145 69.4923 171.239 75.6193 174.032 82.3624C176.826 89.1056 178.263 96.3328 178.263 103.632C178.263 110.93 176.826 118.158 174.032 124.901C171.239 131.644 167.145 137.771 161.984 142.932C156.823 148.093 150.696 152.187 143.953 154.98C137.21 157.773 129.983 159.211 122.684 159.211L122.684 196.263Z" fill="#103B4D"/>
<path d="M122.684 45.7368C98.1168 45.7368 74.5556 55.4962 57.1838 72.868C39.812 90.2398 30.0526 113.801 30.0526 138.368C30.0526 162.936 39.812 186.497 57.1838 203.869C74.5556 221.241 98.1168 231 122.684 231L122.684 193.947C107.944 193.947 93.807 188.092 83.3839 177.669C72.9609 167.246 67.1052 153.109 67.1052 138.368C67.1052 123.628 72.9609 109.491 83.3839 99.0682C93.807 88.6451 107.944 82.7895 122.684 82.7895L122.684 45.7368Z" fill="#103B4D"/>
<path d="M122.684 191.053C134.088 191.053 145.381 188.806 155.917 184.442C166.453 180.078 176.027 173.681 184.091 165.617C192.155 157.553 198.552 147.98 202.916 137.444C207.28 126.907 209.526 115.615 209.526 104.211C209.526 92.8063 207.28 81.5137 202.916 70.9775C198.552 60.4413 192.155 50.8679 184.091 42.8039C176.027 34.7399 166.453 28.3431 155.917 23.9789C145.381 19.6147 134.088 17.3684 122.684 17.3684L122.684 52.1053C129.527 52.1053 136.302 53.453 142.624 56.0715C148.946 58.6901 154.69 62.5281 159.528 67.3665C164.367 72.205 168.205 77.949 170.823 84.2707C173.442 90.5924 174.789 97.368 174.789 104.211C174.789 111.053 173.442 117.829 170.823 124.15C168.205 130.472 164.367 136.216 159.528 141.055C154.69 145.893 148.946 149.731 142.624 152.35C136.302 154.968 129.527 156.316 122.684 156.316L122.684 191.053Z" fill="#103B4D"/>
<path d="M122.684 50.9474C99.6522 50.9474 77.5636 60.0968 61.2775 76.3828C44.9915 92.6689 35.842 114.758 35.842 137.789C35.842 160.821 44.9914 182.91 61.2775 199.196C77.5635 215.482 99.6522 224.632 122.684 224.632L122.684 189.895C108.865 189.895 95.6118 184.405 85.8402 174.633C76.0685 164.862 70.5789 151.609 70.5789 137.789C70.5789 123.97 76.0685 110.717 85.8402 100.945C95.6118 91.1739 108.865 85.6842 122.684 85.6842L122.684 50.9474Z" fill="#103B4D"/>
</g>
<defs>
<filter id="filter0_bddddddd_25_4814" x="0" y="0" width="250" height="250" filterUnits="userSpaceOnUse" color-interpolation-filters="sRGB">
<feFlood flood-opacity="0" result="BackgroundImageFix"/>
<feGaussianBlur in="BackgroundImageFix" stdDeviation="2"/>
<feComposite in2="SourceAlpha" operator="in" result="effect1_backgroundBlur_25_4814"/>
<feColorMatrix in="SourceAlpha" type="matrix" values="0 0 0 0 0 0 0 0 0 0 0 0 0 0 0 0 0 0 127 0" result="hardAlpha"/>
<feOffset dy="4"/>
<feGaussianBlur stdDeviation="2"/>
<feComposite in2="hardAlpha" operator="out"/>
<feColorMatrix type="matrix" values="0 0 0 0 0 0 0 0 0 0 0 0 0 0 0 0 0 0 0.25 0"/>
<feBlend mode="normal" in2="effect1_backgroundBlur_25_4814" result="effect2_dropShadow_25_4814"/>
<feColorMatrix in="SourceAlpha" type="matrix" values="0 0 0 0 0 0 0 0 0 0 0 0 0 0 0 0 0 0 127 0" result="hardAlpha"/>
<feOffset dy="4"/>
<feGaussianBlur stdDeviation="2"/>
<feComposite in2="hardAlpha" operator="out"/>
<feColorMatrix type="matrix" values="0 0 0 0 0 0 0 0 0 0 0 0 0 0 0 0 0 0 0.25 0"/>
<feBlend mode="normal" in2="effect2_dropShadow_25_4814" result="effect3_dropShadow_25_4814"/>
<feColorMatrix in="SourceAlpha" type="matrix" values="0 0 0 0 0 0 0 0 0 0 0 0 0 0 0 0 0 0 127 0" result="hardAlpha"/>
<feOffset dy="4"/>
<feGaussianBlur stdDeviation="2"/>
<feComposite in2="hardAlpha" operator="out"/>
<feColorMatrix type="matrix" values="0 0 0 0 0 0 0 0 0 0 0 0 0 0 0 0 0 0 0.25 0"/>
<feBlend mode="normal" in2="effect3_dropShadow_25_4814" result="effect4_dropShadow_25_4814"/>
<feColorMatrix in="SourceAlpha" type="matrix" values="0 0 0 0 0 0 0 0 0 0 0 0 0 0 0 0 0 0 127 0" result="hardAlpha"/>
<feOffset dy="4"/>
<feGaussianBlur stdDeviation="2"/>
<feComposite in2="hardAlpha" operator="out"/>
<feColorMatrix type="matrix" values="0 0 0 0 0 0 0 0 0 0 0 0 0 0 0 0 0 0 0.25 0"/>
<feBlend mode="normal" in2="effect4_dropShadow_25_4814" result="effect5_dropShadow_25_4814"/>
<feColorMatrix in="SourceAlpha" type="matrix" values="0 0 0 0 0 0 0 0 0 0 0 0 0 0 0 0 0 0 127 0" result="hardAlpha"/>
<feOffset dy="4"/>
<feGaussianBlur stdDeviation="2"/>
<feComposite in2="hardAlpha" operator="out"/>
<feColorMatrix type="matrix" values="0 0 0 0 0 0 0 0 0 0 0 0 0 0 0 0 0 0 0.25 0"/>
<feBlend mode="normal" in2="effect5_dropShadow_25_4814" result="effect6_dropShadow_25_4814"/>
<feColorMatrix in="SourceAlpha" type="matrix" values="0 0 0 0 0 0 0 0 0 0 0 0 0 0 0 0 0 0 127 0" result="hardAlpha"/>
<feOffset dy="4"/>
<feGaussianBlur stdDeviation="2"/>
<feComposite in2="hardAlpha" operator="out"/>
<feColorMatrix type="matrix" values="0 0 0 0 0 0 0 0 0 0 0 0 0 0 0 0 0 0 0.25 0"/>
<feBlend mode="normal" in2="effect6_dropShadow_25_4814" result="effect7_dropShadow_25_4814"/>
<feColorMatrix in="SourceAlpha" type="matrix" values="0 0 0 0 0 0 0 0 0 0 0 0 0 0 0 0 0 0 127 0" result="hardAlpha"/>
<feOffset dy="4"/>
<feGaussianBlur stdDeviation="7.5"/>
<feComposite in2="hardAlpha" operator="out"/>
<feColorMatrix type="matrix" values="0 0 0 0 0 0 0 0 0 0 0 0 0 0 0 0 0 0 0.25 0"/>
<feBlend mode="normal" in2="effect7_dropShadow_25_4814" result="effect8_dropShadow_25_4814"/>
<feBlend mode="normal" in="SourceGraphic" in2="effect8_dropShadow_25_4814" result="shape"/>
</filter>
</defs>
</svg>
